<svg xmlns="http://www.w3.org/2000/svg" width="12.237" height="6.976" viewBox="0 0 12.237 6.976">
  <g id="arrow-down-sign-to-navigate" transform="translate(12.237 0) rotate(90)">
    <path id="Path_36455" data-name="Path 36455" d="M6.119,6.976a.854.854,0,0,1-.606-.251L.251,1.463A.857.857,0,0,1,1.463.251L6.119,4.907,10.774.251a.857.857,0,1,1,1.212,1.212L6.724,6.725A.854.854,0,0,1,6.119,6.976ZM6.119,0a.854.854,0,0,1-.606.251L.251,5.513a.857.857,0,1,1-1.212-1.212l5.656-5.656L10.774,4.907a.857.857,0,1,1-1.212,1.212L6.724.251A.854.854,0,0,1,6.119,0Z" transform="translate(0 0)"/>
  </g>
</svg>

